<?xml version="1.0" encoding="UTF-8" standalone="no"?>
<!-- Created with Inkscape (http://www.inkscape.org/) -->

<svg
   version="1.1"
   id="svg1"
   width="946.5708"
   height="1054.642"
   viewBox="0 0 946.57083 1054.642"
   sodipodi:docname="sl-ext-editor.svg"
   inkscape:version="1.4 (e7c3feb100, 2024-10-09)"
   inkscape:export-filename="sl-ext-editor-dm-128.png"
   inkscape:export-xdpi="11.651347"
   inkscape:export-ydpi="11.651347"
   xmlns:inkscape="http://www.inkscape.org/namespaces/inkscape"
   xmlns:sodipodi="http://sodipodi.sourceforge.net/DTD/sodipodi-0.dtd"
   xmlns="http://www.w3.org/2000/svg"
   xmlns:svg="http://www.w3.org/2000/svg">
  <defs
     id="defs1">
    <inkscape:path-effect
       effect="fillet_chamfer"
       id="path-effect76"
       is_visible="true"
       lpeversion="1"
       nodesatellites_param="F,0,1,1,0,15.209902,0,1 @ F,0,1,1,0,15.209902,0,1 @ F,0,1,1,0,15.209902,0,1 @ F,0,1,1,0,15.209902,0,1 @ F,0,1,1,0,15.209902,0,1 @ F,0,0,1,0,15.209902,0,1"
       radius="0"
       unit="px"
       method="auto"
       mode="F"
       chamfer_steps="1"
       flexible="false"
       use_knot_distance="true"
       apply_no_radius="true"
       apply_with_radius="true"
       only_selected="false"
       hide_knots="false" />
    <inkscape:path-effect
       effect="fillet_chamfer"
       id="path-effect27"
       is_visible="true"
       lpeversion="1"
       nodesatellites_param="F,0,1,1,0,15.209902,0,1 @ F,0,1,1,0,15.209902,0,1 @ F,0,1,1,0,15.209902,0,1 @ F,0,1,1,0,15.209902,0,1 @ F,0,1,1,0,15.209902,0,1 @ F,0,0,1,0,15.209902,0,1"
       radius="0"
       unit="px"
       method="auto"
       mode="F"
       chamfer_steps="1"
       flexible="false"
       use_knot_distance="true"
       apply_no_radius="true"
       apply_with_radius="true"
       only_selected="false"
       hide_knots="false" />
  </defs>
  <sodipodi:namedview
     id="namedview1"
     pagecolor="#ffffff"
     bordercolor="#000000"
     borderopacity="0.25"
     inkscape:showpageshadow="2"
     inkscape:pageopacity="0.0"
     inkscape:pagecheckerboard="0"
     inkscape:deskcolor="#d1d1d1"
     inkscape:zoom="0.60717777"
     inkscape:cx="659.60913"
     inkscape:cy="480.09004"
     inkscape:window-width="2752"
     inkscape:window-height="1080"
     inkscape:window-x="0"
     inkscape:window-y="0"
     inkscape:window-maximized="1"
     inkscape:current-layer="layer1" />
  <g
     inkscape:groupmode="layer"
     id="layer1"
     inkscape:label="Trace"
     style="display:inline"
     transform="translate(-205.42917,-177.3156)">
    <rect
       style="display:inline;fill:#171717;fill-opacity:1"
       id="rect1"
       width="915.32983"
       height="780.39398"
       x="205.42917"
       y="177.3156"
       ry="69.995972"
       inkscape:export-filename="rect-dm.svg"
       inkscape:export-xdpi="96"
       inkscape:export-ydpi="96" />
    <g
       id="g6"
       clip-path="none"
       style="display:inline">
      <rect
         style="fill:#313131;fill-opacity:1"
         id="rect2"
         width="840.75867"
         height="579.12982"
         x="243.9794"
         y="341.36737"
         ry="47.761955" />
      <rect
         style="fill:#313131;fill-opacity:1"
         id="rect3"
         width="840.75867"
         height="189.94128"
         x="243.9794"
         y="341.36737"
         ry="9.0582991" />
    </g>
    <circle
       style="display:inline;fill:#126dd4;fill-opacity:1"
       id="path8"
       r="28.667957"
       cy="262.64655"
       cx="298.61517" />
    <circle
       style="display:inline;fill:#126dd4;fill-opacity:1"
       id="path8-3"
       r="28.667957"
       cy="262.64655"
       cx="390.46207" />
    <circle
       style="display:inline;fill:#126dd4;fill-opacity:1"
       id="path8-1"
       r="28.667957"
       cy="262.64655"
       cx="483.9075" />
    <g
       id="g30"
       style="display:inline">
      <path
         d="M 811.47266,562.15234 531.45703,703.40625 811.47266,850.66016 1091.4883,703.40625 Z"
         style="fill:#de953d;fill-opacity:1"
         id="path30"
         sodipodi:nodetypes="ccccc" />
      <path
         d="m 1115.7246,732.12109 -288.24999,149.22071 1.14401,306.7655 288.25198,-149.2227 z"
         style="fill:#a1520e;fill-opacity:1"
         id="path29"
         sodipodi:nodetypes="ccccc" />
      <path
         d="M 508.39006,732.12109 793.4746,881.3418 792.34315,1188.1073 507.25664,1038.8846 Z"
         style="fill:#de953d;fill-opacity:1;stroke-width:0.994494"
         id="path29-2"
         sodipodi:nodetypes="ccccc" />
    </g>
    <path
       d="m 1117.375,730.66602 c -0.7103,0 -47.4938,17.80462 -50.3462,25.27265 -0.01,3.09221 0.3364,6.16569 0.5982,9.24297 0.2876,3.38361 1.4183,11.25105 2.5117,17.48438 5.2213,29.76563 13.4759,50.91642 24.5273,62.83789 6.2873,6.78234 19.4808,16.85353 22.334,17.04882 l 1.666,0.11329 v -66 -66 z m -64.7207,32.96682 c -2.5332,0.30996 -16.1563,9.11995 -16.3418,9.19531 -6.6048,2.68372 -12.1523,6.40321 -18.2607,9.47631 l 1.1064,12.80495 c 0.8775,12.61595 4.57,30.39061 8.4961,40.89062 2.3055,6.16584 10.6571,22.85463 19.6836,39.33398 8.3456,15.23649 10.8284,20.76555 14.3887,32.04493 5.1955,16.45962 6.2021,23.88483 5.6875,41.95507 -0.5816,20.41988 -1.3882,29.03699 -11.5606,55.66599 -2.0526,5.3732 -18.117,52.8024 -18.8467,57.0913 -0.711,4.1788 -5.4581,24.2206 -0.9389,21.7075 4.5191,-2.5131 19.5447,-10.9303 23.9594,-13.3672 4.4147,-2.4369 9.0511,-5.0477 10.3028,-5.8007 l 2.2754,-1.3692 4.6875,-21.2969 c 6.4081,-29.1141 19.7231,-57.69727 32.5273,-67.03899 2.2993,-1.67747 5.0797,-3.77169 6.1797,-4.6543 l 2,-1.60546 -0.3848,-44.33594 -0.3847,-44.33789 -4.2832,-1.79297 c -16.2621,-6.8131 -33.9917,-24.38297 -43.2559,-42.86524 -6.6339,-13.23488 -12.8289,-35.98136 -15.1406,-55.59179 -0.8909,-7.5579 -1.7442,-15.90761 -1.8965,-16.10938 z m -56.35548,28.24805 c -3.4641,1.83845 -11.2675,4.9121 -16.2988,8.52734 l -10,5.18555 0.2578,9.20313 c 0.667,18.69487 6.5391,37.00284 22.2012,69.20312 10.55608,21.70279 15.28918,34.55729 19.02338,51.67969 3.1116,9.89277 2.5858,20.0977 2.9779,30.32031 0.3931,10.25 -0.6956,19.85554 -2.8763,29.75197 -4.2505,19.2899 -9.7123,33.3698 -23.62498,60.914 -14.851,29.4018 -26.5404,63.334 -23.1719,63.334 0.4647,0 12.3268,-6.3802 26.3594,-14.1777 -1.7807,0.9779 29.43198,-11.4741 29.85358,-14.2071 0.3461,-2.2436 0.3339,-9.5852 0.334,-11.4882 9e-4,-12.8698 9.5989,-48.7761 19.9941,-74.793 1.6116,-4.0334 4.4686,-14.3024 6.8965,-22.66795 3.0236,-10.4177 4.3117,-20.57616 5.0197,-31.28242 0.759,-9.21192 0.1042,-17.87199 -1.8732,-26.87383 -3.4002,-15.48648 -9.2822,-28.96428 -25.5645,-58.57813 -10.8749,-19.77917 -17.8477,-41.71541 -19.9433,-62.74023 -1.2634,-12.67593 -1.2468,-14.625 -2.3145,-14.625 -3.3826,-0.2444 -4.35258,1.79763 -7.25008,3.31445 z m -40.2988,22.55661 -8.334,0.63672 c -9.6192,0.73491 -21.4595,11.64734 -39.6191,21.1543 -5.4743,2.86588 -10.9465,6.10824 -12.1602,7.20703 l -2.207,1.99804 -0.1484,10.62891 c -0.082,5.86463 -1.4263,15.65801 -3.5586,26.94531 -0.3819,2.02153 -3.7086,12.82153 -7.3926,24 -11.9523,36.26709 -23.6604,55.4686 -42.6602,70.99219 l -13.0527,11.0293 c -8.0573,6.8082 0.5626,13.7447 -0.2481,35.0781 l 1.1602,22.1074 3.7773,2.3887 c 10.0201,6.3381 24.0757,24.7623 32.0899,42.0625 9.3452,20.1735 14.3114,43.4945 14.9785,70.334 0.058,2.3171 -1.9902,8.4582 10.3531,1.946 6.0815,-3.2085 16.5871,-12.2082 19.5205,-13.862 2.9333,-1.6537 13.1972,-6.5432 22.3639,-11.6672 9.1666,-5.124 16.5673,-8.0647 17.3858,-8.9094 1.2078,-1.2464 0.9401,-6.1486 1.0857,-9.6969 0.2163,-5.2731 3.8544,-20.4568 8.1641,-32.1445 1.4872,-4.0333 8.3267,-18.1367 15.1972,-31.3418 14.9702,-28.7725 20.9007,-43.6542 24.5625,-61.623 L 1000,980.24805 l -0.01,-13.125 c -0.01,-21.65775 -3.9065,-40.56958 -12.1133,-58.77539 -1.4013,-3.10867 -2.5469,-5.98755 -2.5469,-6.39649 0,-0.40894 -3.0618,-6.86527 -6.8046,-14.34765 -14.0346,-28.05643 -22.021,-52.53229 -22.42,-68.71875 z m -75.8945,37.64258 -5.0821,1.79297 c -2.7947,0.98599 -7.3467,3.33088 -10.1171,5.21093 -2.7705,1.88006 -7.1081,4.10233 -9.6387,4.9375 -2.5306,0.83518 -4.6016,2.10839 -4.6016,2.82813 0,0.71974 -0.5987,0.9376 -1.332,0.48437 -0.7334,-0.45322 -1.334,-0.26865 -1.334,0.41211 0,0.68075 -3.6461,2.81968 -8.1016,4.75196 -4.4554,1.93229 -8.9554,4.36759 -10,5.41211 l -2.7718,2.91744 0.3047,45.76368 0.3027,41.76171 c 4.2984,-3.09548 8.0368,-7.08904 11.6712,-10.90757 11.3875,-11.96492 14.5357,-17.61985 21.4542,-34.34386 8.9838,-21.71662 14.6583,-40.88259 18.375,-62.06054 z m 72.5605,56.97656 c 2.9333,1.58576 6.6409,4.00785 8.2383,5.38281 4.8831,4.20306 10.492,15.26615 14.1328,24.89453 3.2611,8.62424 2.653,17.00581 2.8926,26 0.2647,9.93694 -0.4172,17.98116 -3.0645,27.04692 -8.8096,30.1721 -19.0084,41.0265 -26.6796,51.9807 -1.721,2.4575 -8.0346,10.2179 -15.2163,14.7226 -7.1818,4.5047 -15.2316,5.7537 -18.9693,5.9607 -7.0377,0.3898 -10.3411,-0.1786 -16.0664,-3.5254 -8.0334,-4.6954 -8.0106,-5.5383 -13.6836,-15.5195 -3.4841,-6.1299 -4.6004,-11.8908 -5.6152,-18.666 -0.8978,-5.9965 -1.2282,-14.7726 -0.7539,-20.043 1.4394,-15.9965 8.041,-40.64383 15.8808,-59.291 9.4686,-22.52126 17.0212,-30.57507 32.3399,-38.18555 5.2064,-2.5866 9.0322,-3.19292 14.5644,-3.60932 5.0304,-0.37863 7.7925,0.57686 12,2.85151 z m -22.3518,13.25897 c -13.8946,6.7942 -25.1314,28.90064 -35.0818,65.68439 -3.7581,13.8958 -4.4072,37.3846 0.5782,48.3184 3.866,7.1784 8.9516,14.2837 17.6347,14.3476 6.8872,0 10.9779,-1.8085 21.0215,-12.7695 7.4268,-8.2243 10.802,-13.3068 15.1203,-21.8156 3.9582,-7.7982 9.1551,-19.8139 11.1701,-25.9457 2.8474,-8.9331 3.6802,-17.19821 3.878,-26.22257 0.1909,-8.71175 -0.9989,-16.81807 -4.6799,-24.36597 -3.0212,-6.19493 -5.8578,-11.42651 -11.5595,-16.8798 -4.5995,-4.39905 -13.6233,-2.53128 -18.0816,-0.35125 z m 13.3323,55.48908 c -0.4098,6.09608 -1.5184,10.59761 -4.0182,15.91211 -2.2953,5.4403 -5.167,8.3003 -9.7715,11.7118 -2.8062,2.0792 -8.469,2.0006 -9.9195,-0.3889 -2.4872,-4.0974 -2.2233,-7.6976 -2.2351,-12.3222 -0.1943,-10.88513 5.4673,-20.19062 10.6392,-29.31204 3.5478,-6.25722 10.055,-5.14181 13.0973,-1.51105 3.0424,3.63077 2.6201,9.77689 2.2078,15.91028 z M 1118.666,986.75 1117,987.4043 c -2.3724,0.932 -12.0182,15.8506 -16.2109,25.0723 -3.5768,7.867 -8.9572,26.1611 -10.1231,32.4218 -0.6862,3.6849 -0.6862,6.9961 0,9.9336 l 11.668,-6.2949 c 6.4166,-3.4617 14.7166,-6.9428 16,-7.7363 l 0.332,-9.4414 v -22.3047 z m -290.66598,78.584 v 64.2324 64.2324 l 2.6973,-1.9609 c 1.4653,-1.0655 8.8694,-6.5122 17.3027,-11.1856 l 15.334,-8.498 0.666,-6.4102 c 1.6462,-15.83 -3.8943,-46.6667 -11.6172,-64.6621 -7.4698,-17.4057 -19.3299,-35.748 -23.1152,-35.748 z"
       style="display:inline;fill:#be701d;fill-opacity:1;stroke-width:2.8;stroke-dasharray:none"
       id="path1-5" />
    <path
       d="m 507.70312,729.84378 c -2.43176,10.06716 -3.61144,25.92682 -1.09634,35.04063 l 0.30338,35.4496 c -0.13448,25.48333 0.0779,46.33204 0.4707,46.33204 0.39272,0 1.95203,-2.8487 3.46484,-6.33204 9.39266,-21.62711 16.24916,-49.60652 18.65821,-76.14257 l 3.49414,-20.47657 z m 39.12696,20.20508 -0.6582,4.30859 c -0.31817,2.08276 -1.82437,11.59077 -4.20313,32.2793 -1.0171,8.84589 -6.47791,29.47884 -12.00391,45.36328 -5.19184,14.92388 -18.40003,42.3769 -21.47656,44.63867 l -1.84961,1.3613 0.34766,77.31445 -1.65235,85.31445 8.66602,4.918 c 12.70869,7.2122 25.22012,12.2008 26.20117,11.2734 0.43274,-0.4091 -8.45544,-28.6978 -10.56445,-40.8203 -1.2901,-7.4154 -1.71795,-14.6096 -2.24024,-29.33398 -0.39596,-11.16287 -0.35932,-21.65608 1.1211,-32.66602 4.08124,-30.35703 10.78567,-52.28752 25.88476,-84.66602 7.4191,-15.90951 14.57386,-35.21121 17.52735,-47.2832 2.72877,-11.15352 4.35734,-33.98322 5.38281,-47.11914 l 0.60379,-7.73437 c -9.67326,-8.57993 -30.72472,-19.51472 -31.08621,-17.14841 z m 44.53711,38.01172 c -1.23523,16.69306 -3.32745,32.16981 -5.57813,41.27343 -2.15178,8.70357 -8.52525,27.05875 -10.96484,31.57813 -1.67407,3.10124 -12.94219,28.56944 -16.11524,36.42187 -7.0782,17.51663 -9.35526,24.75287 -12.58203,40 -7.41564,35.0404 -3.47201,59.61185 4.04688,101.41989 l 4.93164,27.4219 39.10392,26.8843 48.45663,18.7954 4.99609,-16.9278 c 2.06598,-7 5.798,-22.4867 8.87695,-34.2617 8.55061,-32.7005 15.07498,-58.536 15.69922,-84.14644 0.12896,-5.29096 1.17883,-23.83642 -0.99805,-41.18555 -1.98665,-15.83305 -4.30675,-26.5411 -8.41601,-38.84765 C 650.84221,860.60219 644,829.54053 644,811.0332 v -8.45508 L 618.37109,789.0293 c -14.09587,-7.45184 -25.94921,-13.47924 -25.94921,-13.23047 0,0 -0.65014,6.79456 -1.05469,12.26175 z m 68.30221,20.60544 c -2.13862,-1.01424 -1.37452,5.75029 0.42044,18.90429 1.86503,13.66751 6.72822,32.84656 13.97071,55.09571 9.91103,30.44702 14.24081,55.89671 13.95117,82 -0.2988,26.92793 -2.75622,42.56618 -12.88477,81.99998 -4.04966,15.7667 -9.47857,37.0404 -12.06445,47.2754 l -8.70117,24.6094 5.17969,3.8691 c 2.48961,1.8597 25.24883,14.7565 26.73828,13.7461 0.67459,-0.4576 1.93396,-15.7326 2.79882,-24.166 2.66715,-26.0073 11.91501,-47.4159 22.67969,-55.3633 3.90862,-2.8857 6.09888,-3.3027 10.6836,-3.3027 11.26595,0 20.86483,7.7342 29.8789,24.0762 8.96513,16.2532 12.81716,37.3537 13.16211,72.1035 l 0.23438,25.5156 8.14062,4.3574 c 4.47803,2.3969 10.24193,5.7292 12.8086,7.4063 2.56667,1.6771 5.10018,3.0857 5.6289,3.1289 0.52873,0.043 0.98341,-31.2201 1.01172,-67.0293 l 0.0527,-65.1074 -10.41993,-6.8575 c -17.18948,-11.3123 -34.26621,-30.7758 -46.03515,-52.47067 -20.84674,-38.42899 -32.94308,-96.06108 -30.03907,-143.12305 l 1.64337,-22 C 695.02094,820.22805 676.83143,816.61673 659.6694,808.66602 Z m 62.7681,33.62304 C 721.82743,843.23057 721.58435,859 721.89844,870 c 1.87703,65.73564 19.6676,119.85256 49.88672,151.748 7.15617,7.5531 19.85254,17.2249 21.96257,17.2965 0.53567,0.018 0.9631,-11.0992 0.44431,-24.1812 l -0.32641,-23.59884 -6.62543,-4.52032 c -6.76883,-4.861 -17.36853,-17.07495 -22.66992,-26.12109 -4.60647,-7.86036 -9.92092,-24.83284 -12.73828,-34.28907 -3.8556,-12.94103 -4.00094,-25.94964 -4.48047,-39.66796 -0.44478,-12.83333 -1.06769,-30.58568 -1.38476,-32.11719 -6.45798,-1.12821 -18.32129,-15.79715 -23.52927,-12.25977 z m 39.7207,21.33008 c -1.49804,1.49804 -0.81123,26.13964 1.21094,40.38086 2.58675,18.21734 6.24249,31.30528 11.85547,42.45117 5.10506,9.65277 10.75926,19.2509 20.22461,24.88281 -2.3199,-29.43803 24.48281,-75.1544 -0.76758,-90.41601 -12.77377,-7.72061 -31.57136,-18.25091 -32.52344,-17.29883 z m -150.24023,7.49805 c 2.22124,0.17885 4.41082,1.18326 6.74805,2.59961 7.08344,4.29253 11.37962,9.77638 17.97656,22.94922 7.26928,14.51536 11.22406,30.59951 14.18945,48.42382 1.58498,9.52697 1.1122,18.1831 0.0195,27.58399 -4.18564,36.00817 -21.63534,56.17137 -36.85547,59.93977 -4.97518,1.2319 -14.2379,0.1422 -18.66797,-1.8909 -25.60819,-11.7523 -36.05562,-45.90456 -28.79101,-87.71489 4.7913,-27.5756 16.96219,-51.27028 38.44336,-69.53906 2.46349,-1.88414 4.71626,-2.53041 6.9375,-2.35156 z m -9.27149,25.0664 c -12.39019,15.67476 -23.11178,41.6324 -23.67968,66.75586 -0.16582,7.33586 -0.4203,14.67381 0.88476,21.64063 2.51218,13.41082 9.43256,24.98892 18.0918,30.26952 5.00071,3.0505 13.03052,5.6349 21.08984,-1.4316 5.21077,-4.5688 11.69764,-18.15638 15.28125,-29.81058 2.43813,-7.92899 2.1943,-16.03831 2.15821,-24.32422 -0.0944,-21.6605 -3.70795,-36.82722 -13.32618,-55.94922 -5.71775,-11.36747 -7.97105,-14 -11.98828,-14 -3.64183,0 -8.51172,6.84961 -8.51172,6.84961 z m 7.49805,39.85352 c 3.29916,0.33421 6.22579,3.82381 7.7793,9.96289 1.41196,5.5797 0.96556,22.59966 -0.77344,29.50586 -2.64736,10.51364 -11.12969,15.8645 -16.10547,10.16016 -3.51435,-4.02894 -4.846,-7.8373 -5.79883,-15.19336 -0.85232,-6.5801 0.62822,-11.65243 2.60547,-17.85352 1.87888,-5.89259 4.65492,-12.04194 6.16797,-13.66602 2.03203,-2.18111 4.14551,-3.11653 6.125,-2.91601 z m 108.32422,134.13869 c -8.25204,8.5951 -15.7691,33.9886 -15.79102,59.3828 l -0.0117,13.5566 c -1.3e-4,0.1524 45.64046,23.4716 47.08007,23.5176 0.59316,0.019 0.78882,-14.0155 0.43555,-26.2988 -0.35327,-12.2834 -1.26597,-25.4425 -2.02734,-29.2422 -3.72569,-18.5934 -16.11153,-40.0339 -23.55469,-42.5606 -2.49707,-1.0062 -4.32812,-0.1301 -6.13087,1.6446 z"
       style="display:inline;fill:#eab865;fill-opacity:1;stroke-width:2.8;stroke-dasharray:none"
       id="path1-9"
       sodipodi:nodetypes="cccsscccssssccccsssscssscssssssscccsssssscscscssssccssssssccsssccssccccssscccsscccssccsssssscssscsscsscssssscsssssssscssssscc" />
    <path
       d="m 826.14842,568.24609 c -15.3662,26.21039 -33.0157,38.67532 -66.6289,47.05664 -15.9361,3.97363 -27.5035,5.53024 -50.1855,6.75391 l -17.5944,0.48865 -37.7396,19.07776 c -21.0753,10.65379 -38.9171,18.90045 -39.22266,19.1875 -1.08863,1.02272 1.9874,0.46353 8.55664,-1.55664 13.02552,-4.00561 29.48932,-6.51632 56.66602,-8.64453 9.1667,-0.71785 20.5673,-1.61694 25.334,-1.9961 25.0989,-1.99649 46.2295,-5.55677 60.666,-10.22266 26.3139,-8.50471 54.4471,-29.37398 72.3359,-53.66015 l 5.8457,-7.9375 -8.8925,-4.48242 c -4.8912,-2.46582 -9.0052,-4.29548 -9.1407,-4.06446 z m 32.8321,15.43946 -2.4903,2.68164 c -1.3699,1.47441 -7.8902,8.93544 -14.4902,16.58008 -6.6,7.64463 -17.7508,17.84831 -24,23.58203 -8.0978,7.4298 -17.0069,12.1275 -26.7051,16.85742 -15.217,7.42307 -33.1264,12.99987 -49.2949,15.34961 -14.6716,2.1322 -41.7621,4.68138 -52.1426,5.26367 -29.6819,1.66499 -56.4773,6.1066 -84.90428,16.89062 -15.90922,6.39597 -60.95312,29.43017 -60.95312,31.16211 0,0.66339 16.09181,8.30009 39.19922,20.72266 l 11.73437,-7.88867 c 30.89561,-20.77019 57.87411,-28.03592 99.74411,-33.58984 18.384,-2.43858 70.8725,-6.8226 83.961,16.12109 3.1508,5.52323 3.8213,12.54993 2.4863,19.25 -5.3797,26.99934 -22.115,44.79234 -41.3457,62.60351 -7.5791,6.7256 -16.6028,15.82203 -16.6028,16.63932 0,0.89126 24.3109,17.16 34.1575,17.52057 l 8.5176,-11.50554 c 9.2184,-12.45223 25.7843,-28.0662 34.8144,-34.75 21.4785,-15.89764 34.9627,-21.58505 61.334,-29.29297 12.2867,-3.5912 24.8954,-4.53822 37.5156,-4.84402 15.7227,-0.38097 30.6442,1.09193 46.0176,2.84012 10.5426,1.19925 25.8237,3.55513 33.957,5.23437 l 16.7871,3.67035 c 26.30498,-16.72621 56.94268,-28.5773 83.61828,-44.58694 0.8786,-0.87859 -8.391,-0.19654 -47.2296,4.54745 -41.22038,5.03487 -60.58598,5.89516 -100.66598,6.22461 -15.0303,0.12355 -29.7893,0.42716 -44.6113,-1.80678 -26.7734,-4.03522 -46.7722,-14.87983 -57.5977,-31.23828 -0.092,-0.10635 -8.8969,-10.3601 -2.1211,-25.36328 7.801,-17.26903 27.6038,-33.89071 58.8614,-49.41016 l 15.1953,-7.54687 -20.1953,-10.12696 c -11.1084,-5.5706 -20.2076,-9.68289 -20.2188,-9.13672 -0.011,0.54617 -0.5402,0.17316 -1.1758,-0.83007 z m 61.0781,30.97851 -14.3633,6.2461 c -27.4114,11.92147 -42.1648,20.97762 -53.1562,32.62695 -7.6316,8.08837 -9.5476,10.47653 -10.336,16.89062 -0.4321,3.51566 -0.6636,5.5168 1.3047,8.66602 3.4182,5.46899 12.0222,21.47812 50.4922,26.0918 20.1194,2.41291 71.3378,0.96432 88,-0.46094 14.3936,-1.33472 29.10998,-1.77968 43.33398,-3.96289 6.9666,-1.12501 16.266,-2.37518 20.666,-2.7793 15.2016,-1.3962 27.5482,-3.08728 28.3418,-3.88086 1.2457,-1.24577 -3.5593,-4.33215 -13.0078,-8.35547 -4.7667,-2.02972 -8.8693,-4.15674 -9.1152,-4.72656 -0.2461,-0.56981 -0.947,-0.72758 -1.5586,-0.34961 -0.6116,0.37798 -1.9608,-0.15995 -2.9981,-1.19726 -1.0373,-1.03731 -6.7074,-4.31092 -12.5996,-7.27344 l -10.7129,-5.38672 -9.291,3.14453 c -18.73038,6.33692 -37.17828,8.69137 -52.39258,10.05274 -14.529,1.30005 -28.8841,1.77823 -43.332,-1.4375 -7.642,-2.08757 -15.4424,-7.83939 -17.584,-12.96485 -2.0865,-3.44241 -2.2046,-5.63073 -1.3566,-9.34375 1.3867,-6.07236 5.3118,-9.02489 9.4835,-12.99805 6.1932,-5.89829 11.6461,-9.74325 19.1368,-13.31054 l 11.0117,-5.24414 -9.9824,-5.02344 z m 37.3242,20.00196 c -2.9479,0 -23.8781,8.36358 -29.3066,11.71093 -5.0258,3.09899 -12.149,8.46141 -12.0762,11.67774 0.059,2.6026 4.5507,5.81706 10.0664,7.10937 7.2795,1.70556 21.2416,1.75153 38.5996,0.12696 15.2243,-1.42486 29.6296,-4.4069 35.2656,-7.30079 l 3.26568,-1.67578 -6.76958,-3.43164 c -3.7233,-1.88677 -7.1436,-3.05754 -7.5996,-2.60156 -0.4559,0.45599 -0.8281,0.16941 -0.8281,-0.63672 0,-1.32779 -5.2738,-3.80431 -6.5176,-3.06055 -0.2847,0.17024 -0.8853,-0.26426 -1.334,-0.96679 -1.3067,-2.04614 -19.8182,-10.95117 -22.7656,-10.95117 z m -225.0801,69.16601 c -6.7324,-0.32568 -14.585,-0.2542 -23.6367,0.19531 -7.6936,0.38207 -37.4311,5.39929 -48.666,8.21094 -17.5927,4.40278 -63.67412,26.50213 -60.66602,28.19727 7.71364,4.34681 13.31798,8.86953 22.4375,12.09765 l 9.44142,-6.02929 c 17.2486,-9.34226 39.3238,-15.30208 54.5156,-16.06836 5.8145,-0.29328 10.0432,0.0394 15.2031,2.16211 3.0789,1.26666 7.0726,4.23643 8.875,6.59961 2.2281,2.92116 3.3664,4.89438 2.0567,10.82812 -1.5396,6.97525 -6.339,15.29837 -12.1973,20.40625 -5.6844,4.95625 -7.304,6.56521 -12.8945,10.4668 -1.6937,1.18204 -5.2266,3.32812 -5.2266,3.32812 l 1.5547,0.96289 c 0.856,0.52901 2.866,1.21357 4.4649,1.52149 1.5988,0.30791 3.2493,1.09507 3.6699,1.75 0.4205,0.65492 4.3144,2.97944 8.6523,5.16406 l 7.8867,3.9707 4.7129,-4.13086 c 1.492,-1.17236 4.3373,-4.08652 6.6504,-6.13086 6.1056,-5.39601 3.3315,-2.42967 10.2246,-8.70312 8.0891,-7.36185 9.4326,-9.23047 15.7618,-15.63086 11.7019,-11.71037 22.069,-35.41392 19.6699,-44.97266 -2.1747,-8.66467 -12.2929,-13.21826 -32.4903,-14.19531 z m -44.9218,40.73245 c -8.8016,-0.24113 -22.9999,2.91449 -36.1368,8.8086 -4.5452,2.03933 -12.6541,6.33993 -13.1308,7.11133 -1.2715,2.05731 28.4914,16.05648 30.084,16.12109 0.8417,0.0341 7.7382,-5.23204 12.8808,-9.25586 9.2637,-7.24838 14.9219,-14.27735 14.9219,-18.53909 0,-2.73273 -3.3382,-4.10142 -8.6191,-4.2461 z m 210.3808,13.46094 c -24.012,0.80972 -43.0585,7.11962 -65.0957,16.66797 -10.88,4.71413 -18.8255,10.38902 -27.332,17.75781 -10.8135,9.36717 -35.334,35.2053 -35.334,37.28903 7.9829,5.88715 19.2385,10.21555 28,14.9043 0,0 2.7535,-4.80665 4.4453,-6.98828 3.6468,-4.70255 8.2142,-9.20354 12.8184,-14.35352 20.0928,-22.4746 41.0307,-32.29389 76.5019,-37.0332 9.1641,-1.22441 17.4822,-1.24421 26.4532,-0.52148 4.5169,0.36391 15.6537,1.70216 15.6537,1.70216 10.4497,-1.42661 31.5365,-12.39497 39.4842,-21.2474 l -11.6106,-2.83769 c -2.3815,-0.58204 -17.5162,-3.25202 -38.2559,-4.73426 -9.227,-0.65945 -17.7245,-0.87538 -25.7285,-0.60547 z m -2.6191,43.33399 c -17.3489,-1.46342 -36.305,5.84201 -50.9473,15.90039 -9.2855,6.37856 -33.09,32.7402 -30.0371,32.7402 28.8661,-17.7343 96.4164,-47.3389 90.7771,-47.81458 z m -96.013,-220.27214 c 10.8873,-11.48801 10.18,-13.06332 11.6234,-20.40084 -9.2855,6.37856 -87.1536,40.72965 -87.2305,44.00503 13.5542,3.05434 36.3852,-2.23459 45.7132,-5.89894 10.8256,-4.25264 22.4846,-9.88706 29.8939,-17.70525 z"
       style="display:inline;fill:#eab865;fill-opacity:1;stroke-width:2.8;stroke-dasharray:none"
       id="path1-4" />
    <path
       id="path71"
       style="display:inline;fill:#171717;fill-opacity:1"
       d="m 811.47266,526.72852 a 30.802829,30.802829 0 0 0 -13.63868,3.18359 l -313.25,154.67773 a 24.473493,24.473493 0 0 0 -13.63867,21.94336 v 331.8789 a 25.384913,25.384913 0 0 0 13.41211,22.3828 l 313.70313,167.8008 a 28.434988,28.434988 0 0 0 26.82422,0 L 1138.5879,1060.7949 A 25.384913,25.384913 0 0 0 1152,1038.4121 V 706.5332 a 24.473493,24.473493 0 0 0 -13.6387,-21.94336 L 825.11133,529.91211 a 30.802829,30.802829 0 0 0 -13.63867,-3.18359 z m 0,35.42382 L 1091.4883,703.40625 811.47266,850.66016 531.45703,703.40625 Z M 508.39062,732.12109 793.47461,881.3418 792.34375,1188.1074 507.25586,1038.8848 Z m 607.33398,0 1.1465,306.76371 -288.25196,149.2226 -1.14453,-306.7656 z" />
  </g>
  <g
     id="g3"
     style="fill:#171717;fill-opacity:1"
     transform="translate(-205.42917,-177.3156)">
    <path
       d="m 363.96094,400.72461 c -8.52865,0 -15.5599,0.52083 -21.09375,1.5625 -5.53386,1.04167 -9.92839,2.66927 -13.1836,4.88281 -3.1901,2.14844 -5.40364,4.94792 -6.64062,8.39844 -1.23698,3.38542 -1.85547,7.48698 -1.85547,12.30469 v 31.05468 c 0.13021,3.125 -0.35807,5.79428 -1.46484,8.00782 -1.04167,2.21354 -2.63672,4.03646 -4.78516,5.46875 -2.14844,1.36718 -4.81771,2.3763 -8.00781,3.02734 -3.125,0.58594 -6.70573,0.87891 -10.74219,0.87891 v 23.33984 c 8.13802,0 14.32292,1.33464 18.55469,4.00391 4.29687,2.66927 6.44531,7.16146 6.44531,13.47656 v 30.76172 c 0,4.81771 0.61849,8.95182 1.85547,12.40234 1.23698,3.45052 3.45052,6.25 6.64062,8.39844 3.25521,2.21354 7.64974,3.84115 13.1836,4.88281 5.53385,1.04167 12.5651,1.5625 21.09375,1.5625 v -22.07031 c -2.60417,-0.0651 -4.98047,-0.29297 -7.12891,-0.68359 -2.08333,-0.39063 -3.8737,-1.10678 -5.37109,-2.14844 -1.43229,-0.97656 -2.53907,-2.34375 -3.32032,-4.10156 -0.78125,-1.75782 -1.17187,-4.03646 -1.17187,-6.83594 v -29.19922 c 0.19531,-6.11979 -1.69271,-10.97005 -5.66406,-14.55078 -3.97136,-3.58073 -9.70052,-5.92448 -17.1875,-7.03125 v -1.17188 c 14.84375,-2.27864 22.46093,-9.50521 22.85156,-21.67968 V 436.4668 c 0,-2.79948 0.39062,-5.07813 1.17187,-6.83594 0.78126,-1.75781 1.88803,-3.125 3.32032,-4.10156 1.49739,-1.04167 3.28776,-1.75782 5.37109,-2.14844 2.14844,-0.39063 4.52474,-0.61849 7.12891,-0.68359 z"
       style="font-size:200px;display:inline;fill:#171717;fill-opacity:1"
       id="path3" />
    <path
       d="m 420.89453,400.72461 v 21.97266 c 2.60417,0.0651 4.94792,0.29296 7.03125,0.68359 2.08333,0.39062 3.84115,1.10677 5.27344,2.14844 1.49739,0.97656 2.63672,2.34375 3.41797,4.10156 0.84635,1.75781 1.26953,4.03646 1.26953,6.83594 v 29.19922 c 0.39062,12.17447 7.97526,19.40104 22.7539,21.67968 v 1.17188 c -7.42187,1.10677 -13.11848,3.45052 -17.08984,7.03125 -3.97135,3.58073 -5.85937,8.43099 -5.66406,14.55078 v 29.19922 c 0,2.79948 -0.42318,5.07812 -1.26953,6.83594 -0.78125,1.75781 -1.92058,3.125 -3.41797,4.10156 -1.43229,1.04166 -3.19011,1.75781 -5.27344,2.14844 -2.08333,0.39062 -4.42708,0.61849 -7.03125,0.68359 v 22.07031 c 8.52865,0 15.5599,-0.52083 21.09375,-1.5625 5.53386,-1.04166 9.89583,-2.66927 13.08594,-4.88281 3.25521,-2.14844 5.5013,-4.94792 6.73828,-8.39844 1.23698,-3.45052 1.85547,-7.58463 1.85547,-12.40234 v -30.76172 c 0,-6.3151 2.11588,-10.80729 6.34765,-13.47656 4.29688,-2.66927 10.51433,-4.00391 18.65235,-4.00391 v -23.33984 c -4.03646,0 -7.64974,-0.29297 -10.83985,-0.87891 -3.125,-0.65104 -5.76171,-1.66016 -7.91015,-3.02734 -2.14844,-1.43229 -3.74349,-3.25521 -4.78516,-5.46875 -1.04166,-2.21354 -1.52995,-4.88282 -1.46484,-8.00782 v -31.05468 c 0,-4.81771 -0.61849,-8.91927 -1.85547,-12.30469 -1.23698,-3.45052 -3.48307,-6.25 -6.73828,-8.39844 -3.19011,-2.21354 -7.55208,-3.84114 -13.08594,-4.88281 -5.53385,-1.04167 -12.5651,-1.5625 -21.09375,-1.5625 z"
       style="font-size:200px;display:inline;fill:#171717;fill-opacity:1"
       id="path2" />
  </g>
</svg>
